<?xml version="1.0" standalone="no"?><!DOCTYPE svg PUBLIC "-//W3C//DTD SVG 1.1//EN" "http://www.w3.org/Graphics/SVG/1.1/DTD/svg11.dtd"><svg t="1611886315166" class="icon" viewBox="0 0 1024 1024" version="1.1" xmlns="http://www.w3.org/2000/svg" p-id="3747" xmlns:xlink="http://www.w3.org/1999/xlink" width="200" height="200"><defs><style type="text/css"></style></defs><path d="M648.2 504.2H509.7c-18.2 0-33-14.8-33-33s14.8-33 33-33h138.5c18.2 0 33 14.8 33 33 0 18.3-14.7 33-33 33z" fill="#ffffff" p-id="3748"></path><path d="M371.2 471.3m-39.6 0a39.6 39.6 0 1 0 79.2 0 39.6 39.6 0 1 0-79.2 0Z" p-id="3749"></path><path d="M648.2 346H509.7c-18.2 0-33-14.8-33-33s14.8-33 33-33h138.5c18.2 0 33 14.8 33 33s-14.7 33-33 33z" fill="#ffffff" p-id="3750"></path><path d="M371.2 313m-39.6 0a39.6 39.6 0 1 0 79.2 0 39.6 39.6 0 1 0-79.2 0Z" p-id="3751"></path><path d="M826.3 939.6H193.1C131.3 939.6 81 883.3 81 814.2v-92.3c0-69.1 50.3-125.3 112.1-125.3h633.2c61.8 0 112.1 56.2 112.1 125.3v92.3c0 69.1-50.3 125.4-112.1 125.4zM193.1 662.5c-25 0-46.2 27.2-46.2 59.4v92.3c0 32.2 21.1 59.4 46.2 59.4h633.2c25 0 46.2-27.2 46.2-59.4v-92.3c0-32.2-21.1-59.4-46.2-59.4H193.1z" fill="#ffffff" p-id="3752"></path><path d="M766.9 662.5c-18.2 0-33-14.8-33-33V194.2c0-25.5-20.7-46.2-46.2-46.2H331.6c-25.5 0-46.2 20.7-46.2 46.2v435.3c0 18.2-14.8 33-33 33s-33-14.8-33-33V194.2c0-61.8 50.3-112.1 112.1-112.1h356.2c61.8 0 112.1 50.3 112.1 112.1v435.3c0.1 18.3-14.6 33-32.9 33z" fill="#ffffff" p-id="3753"></path></svg>