<?xml version="1.0" standalone="no"?><!DOCTYPE svg PUBLIC "-//W3C//DTD SVG 1.1//EN" "http://www.w3.org/Graphics/SVG/1.1/DTD/svg11.dtd"><svg t="1611917154904" class="icon" viewBox="0 0 1024 1024" version="1.1" xmlns="http://www.w3.org/2000/svg" p-id="5302" xmlns:xlink="http://www.w3.org/1999/xlink" width="200" height="200"><defs><style type="text/css"></style></defs><path d="M368.4864 856.99072c-1.4336 42.60864-33.52576 74.69568-76.1344 76.12928-42.58816 1.4336-74.77248-35.68128-76.1344-76.12928-1.4336-42.58816 35.68128-74.77248 76.1344-76.1344 42.59328-1.43872 74.77248 35.68128 76.1344 76.1344 1.11104 32.92672 52.31104 33.03424 51.2 0-2.39104-70.99904-56.33536-124.94336-127.3344-127.3344-70.95808-2.39104-125.06112 59.93472-127.3344 127.3344-2.39104 70.95296 59.93472 125.06112 127.3344 127.32928 70.95296 2.39104 125.06112-59.9296 127.3344-127.32928 1.11104-33.03424-50.08896-32.92672-51.2 0zM783.91296 856.99072c-1.4336 42.60864-33.52576 74.69568-76.1344 76.12928-42.58816 1.4336-74.76736-35.6864-76.12928-76.12928-1.4336-42.58816 35.68128-74.77248 76.12928-76.1344 42.5984-1.43872 74.77248 35.68128 76.1344 76.1344 1.11104 32.92672 52.31616 33.03424 51.2 0-2.39104-70.99904-56.33536-124.94336-127.3344-127.3344-70.95296-2.39104-125.06112 59.93984-127.32928 127.3344-2.39104 70.94784 59.93472 125.06112 127.32928 127.32928 70.95296 2.39104 125.06624-59.9296 127.3344-127.32928 1.11616-33.03424-50.08896-32.92672-51.2 0z" p-id="5303"></path><path d="M725.76512 297.63584c83.70176 72.75008 167.3984 145.50016 251.10528 218.24512l-7.5008-18.0992v315.76064c0 15.24224-10.83904 15.31392-23.28064 15.31392h-136.55552c-33.01376 0-33.01376 51.2 0 51.2h89.99936c30.03392 0 69.67296 6.41024 95.60576-11.92448 25.80992-18.24256 25.43104-46.41792 25.43104-74.23488v-105.14944-190.0032c0-18.18624-19.93728-29.87008-32.1536-40.49408l-81.74592-71.05024-144.70656-125.7728c-24.79104-21.54496-61.16352 14.5152-36.1984 36.20864z" p-id="5304"></path><path d="M190.6176 828.86144H97.24928c-17.52064 0-26.43456-1.88416-26.43456-20.06016v-158.32064-449.54112-41.18528c0-14.2336 15.81056-11.53024 25.30816-11.53024H707.5328c15.95392 0 10.73664 28.5184 10.73664 38.12352v93.18912c0 33.01888 51.2 33.01888 51.2 0V199.0144c0-41.74336 0.3584-96.45568-54.99392-101.41696-38.25152-3.42528-77.80352-0.57856-116.15744-0.57856H140.48256c-50.304 0-114.67776-7.6032-120.86272 61.44-3.2 35.69664 0 73.15456 0 108.9536v529.67936c0 10.89536-1.42336 24.15104 1.49504 34.78016 11.55072 42.0864 46.62784 48.18944 84.03456 48.18944h85.4784c33.00864 0 33.00864-51.2-0.01024-51.2zM603.5712 828.86144h-176.0768c-33.01888 0-33.01888 51.2 0 51.2h176.0768c33.01376 0 33.01376-51.2 0-51.2zM718.26432 454.11328v94.17216c0 13.94688 11.64288 25.59488 25.6 25.59488H883.2c33.01376 0 33.01376-51.18976 0-51.18976h-139.33568c8.53504 8.53504 17.06496 17.07008 25.6 25.59488V454.11328c0-33.01888-51.2-33.01888-51.2 0z" p-id="5305"></path></svg>