<?xml version="1.0" standalone="no"?><!DOCTYPE svg PUBLIC "-//W3C//DTD SVG 1.1//EN" "http://www.w3.org/Graphics/SVG/1.1/DTD/svg11.dtd"><svg t="1611917104906" class="icon" viewBox="0 0 1024 1024" version="1.1" xmlns="http://www.w3.org/2000/svg" p-id="2058" xmlns:xlink="http://www.w3.org/1999/xlink" width="200" height="200"><defs><style type="text/css"></style></defs><path d="M742 927.5H292.5c-66 0-119.8-50.9-119.8-113.4V558.8c0-22.9 18.6-41.5 41.5-41.5s41.5 18.6 41.5 41.5v255.4c0 16.8 16.5 30.5 36.8 30.5H742c20.3 0 36.8-13.7 36.8-30.5V558.8c0-22.9 18.6-41.5 41.5-41.5s41.5 18.6 41.5 41.5v255.4c0 62.5-53.7 113.3-119.8 113.3z" fill="#FFFFFF" p-id="2059"></path><path d="M517.6 611.9c-43.9 0-85.8-14.5-118.7-40.2-44.6 31.8-103.3 43.4-159.3 29.6-43.4-10.6-81.2-35.5-106.2-70.1-30.3-41.6-39.6-93.5-25.4-142.4l48.5-202.7c0.2-0.7 0.3-1.4 0.5-2 14.9-50.7 64.2-86 120-86h466.1c51.4 0 98.2 30.4 116.4 75.7 0.4 1 0.8 2.1 1.1 3.1l51.7 165.6c27.8 80.5 19.3 145.9-25.9 193-13 13.8-28.8 25.7-47 35.3-61.5 32.6-137.1 28.6-194-6.9-33.7 30.6-79 48-127.8 48zM400.2 473.2h1c12.6 0.3 24.3 6.3 31.9 16.3 18.8 24.7 50.4 39.4 84.4 39.4 36.2 0 69.9-17.1 88-44.7 2.2-3.3 4.8-6.3 7.8-8.8 14.8-12.8 40.5-12.5 55 0.7 0.8 0.7 1.6 1.5 2.3 2.3 32.3 33.9 87 42 130 19.2 10.2-5.4 18.7-11.8 25.6-19l0.3-0.3c14.2-14.8 30.4-42.3 7-109.8l-51.4-164.9c-6.1-13.5-21.5-22.5-38.9-22.5H277.1c-18.6 0-35.3 10.8-40.2 25.7l-48.7 203.3c-7.6 26.3-3 51.3 12.4 72.4 13.6 18.8 34.4 32.3 58.8 38.2 41 10 83.8-2.8 109.2-32.9 7.8-9.2 19.4-14.6 31.6-14.6z" fill="#FFFFFF" p-id="2060"></path><path d="M629.8 548.5h-0.4c-22.9 0-41.5-18.6-41.5-41.5 0-11.5 4.7-21.9 12.2-29.4 7.5-7.6 17.9-12.2 29.4-12.2 11.1 0 21.2 4.4 28.6 11.4 8 7.6 13 18.3 13 30.2 0.2 22.9-18.4 41.5-41.3 41.5zM666.4 777.8c-22.9 0-41.5-18.6-41.5-41.5v-45.7c0-22.9 18.6-41.5 41.5-41.5s41.5 18.6 41.5 41.5v45.7c0 23-18.6 41.5-41.5 41.5z" fill="#FFFFFF" p-id="2061"></path></svg>